<svg width="20" height="20" viewBox="0 0 20 20" fill="none" xmlns="http://www.w3.org/2000/svg">
<g clip-path="url(#clip0_1_227)">
<path d="M3.74988 5.83333C3.36669 5.83441 2.9871 5.75947 2.63307 5.61285C2.27904 5.46624 1.95761 5.25085 1.68738 4.97917L0.416547 3.85C0.169012 3.62899 0.0194124 3.31869 0.00065872 2.98738C-0.00862714 2.82333 0.01449 2.65905 0.0686903 2.50394C0.122891 2.34882 0.207112 2.2059 0.316547 2.08333C0.425982 1.96077 0.558487 1.86095 0.706496 1.7896C0.854505 1.71824 1.01512 1.67673 1.17917 1.66745C1.51048 1.64869 1.83568 1.76232 2.08321 1.98333L3.40321 3.16167C3.44619 3.21246 3.49913 3.2539 3.55876 3.28343C3.61838 3.31295 3.68343 3.32994 3.74988 3.33333C3.86017 3.33331 3.96596 3.28956 4.04405 3.21167L7.05488 0.345001C7.29663 0.126248 7.61428 0.0106035 7.94008 0.0227319C8.26589 0.0348603 8.57406 0.173801 8.79887 0.409923C9.02369 0.646044 9.14735 0.960657 9.14349 1.28666C9.13963 1.61267 9.00856 1.92427 8.77821 2.155L5.78988 5C5.52138 5.26627 5.20298 5.47694 4.85292 5.61994C4.50286 5.76294 4.12802 5.83546 3.74988 5.83333ZM19.9999 2.91667C19.9999 2.58515 19.8682 2.2672 19.6338 2.03278C19.3993 1.79836 19.0814 1.66667 18.7499 1.66667H12.0832C11.7517 1.66667 11.4338 1.79836 11.1993 2.03278C10.9649 2.2672 10.8332 2.58515 10.8332 2.91667C10.8332 3.24819 10.9649 3.56613 11.1993 3.80055C11.4338 4.03497 11.7517 4.16667 12.0832 4.16667H18.7499C19.0814 4.16667 19.3993 4.03497 19.6338 3.80055C19.8682 3.56613 19.9999 3.24819 19.9999 2.91667ZM5.78988 11.6667L8.77821 8.82167C9.00856 8.59093 9.13963 8.27934 9.14349 7.95333C9.14735 7.62732 9.02369 7.31271 8.79887 7.07659C8.57406 6.84047 8.26589 6.70153 7.94008 6.6894C7.61428 6.67727 7.29663 6.79291 7.05488 7.01167L4.04405 9.87833C3.96591 9.95645 3.85995 10.0003 3.74946 10.0003C3.63898 10.0003 3.53302 9.95645 3.45488 9.87833L2.13405 8.55667C1.89955 8.32217 1.58151 8.19043 1.24988 8.19043C0.918254 8.19043 0.60021 8.32217 0.365714 8.55667C0.131218 8.79116 -0.000519791 9.10921 -0.000519791 9.44083C-0.000519791 9.77246 0.131218 10.0905 0.365714 10.325L1.68738 11.6458C2.23068 12.1888 2.96624 12.4956 3.73435 12.4995C4.50245 12.5034 5.24109 12.2041 5.78988 11.6667ZM19.9999 9.58333C19.9999 9.25181 19.8682 8.93387 19.6338 8.69945C19.3993 8.46503 19.0814 8.33333 18.7499 8.33333H12.0832C11.7517 8.33333 11.4338 8.46503 11.1993 8.69945C10.9649 8.93387 10.8332 9.25181 10.8332 9.58333C10.8332 9.91485 10.9649 10.2328 11.1993 10.4672C11.4338 10.7016 11.7517 10.8333 12.0832 10.8333H18.7499C19.0814 10.8333 19.3993 10.7016 19.6338 10.4672C19.8682 10.2328 19.9999 9.91485 19.9999 9.58333ZM5.78988 18.3333L8.77821 15.4883C9.00856 15.2576 9.13963 14.946 9.14349 14.62C9.14735 14.294 9.02369 13.9794 8.79887 13.7433C8.57406 13.5071 8.26589 13.3682 7.94008 13.3561C7.61428 13.3439 7.29663 13.4596 7.05488 13.6783L4.04405 16.545C3.96596 16.6229 3.86017 16.6666 3.74988 16.6667C3.68343 16.6633 3.61838 16.6463 3.55876 16.6168C3.49913 16.5872 3.44619 16.5458 3.40321 16.495L2.08321 15.3167C1.83568 15.0957 1.51048 14.982 1.17917 15.0008C0.847856 15.0195 0.537561 15.1691 0.316547 15.4167C0.0955336 15.6642 -0.0180949 15.9894 0.00065872 16.3207C0.0194124 16.652 0.169012 16.9623 0.416547 17.1833L1.68571 18.3125C2.22909 18.856 2.965 19.163 3.73351 19.1669C4.50202 19.1708 5.24102 18.8713 5.78988 18.3333ZM19.9999 16.25C19.9999 15.9185 19.8682 15.6005 19.6338 15.3661C19.3993 15.1317 19.0814 15 18.7499 15H12.0832C11.7517 15 11.4338 15.1317 11.1993 15.3661C10.9649 15.6005 10.8332 15.9185 10.8332 16.25C10.8332 16.5815 10.9649 16.8995 11.1993 17.1339C11.4338 17.3683 11.7517 17.5 12.0832 17.5H18.7499C19.0814 17.5 19.3993 17.3683 19.6338 17.1339C19.8682 16.8995 19.9999 16.5815 19.9999 16.25Z" fill="#6DCEFF"/>
</g>
<defs>
<clipPath id="clip0_1_227">
<rect width="20" height="20" fill="white"/>
</clipPath>
</defs>
</svg>
