<svg width="21" height="20" viewBox="0 0 21 20" fill="none" xmlns="http://www.w3.org/2000/svg">
<g clip-path="url(#clip0_1_242)">
<path d="M7.99988 9.16667C7.53988 9.16667 7.16654 8.79417 7.16654 8.33333C7.16654 7.24333 8.03154 6.7675 8.40071 6.56417C8.64238 6.43167 8.89654 6.11833 8.81904 5.67583C8.76154 5.34917 8.48404 5.07167 8.15821 5.015C7.90321 4.96833 7.65654 5.03333 7.46488 5.195C7.27488 5.35333 7.16654 5.58667 7.16654 5.83417C7.16654 6.295 6.79321 6.6675 6.33321 6.6675C5.87321 6.6675 5.49988 6.295 5.49988 5.83417C5.49988 5.09333 5.82571 4.395 6.39321 3.91833C6.96071 3.44167 7.70738 3.24 8.44571 3.37417C9.45321 3.55 10.2824 4.37833 10.4599 5.38833C10.6457 6.44833 10.1415 7.5075 9.20488 8.025C8.83238 8.23 8.83238 8.29 8.83238 8.33417C8.83238 8.795 8.45904 9.1675 7.99904 9.1675L7.99988 9.16667ZM7.99988 10C7.42488 10 6.95821 10.4667 6.95821 11.0417C6.95821 11.6167 7.42488 12.0833 7.99988 12.0833C8.57488 12.0833 9.04154 11.6167 9.04154 11.0417C9.04154 10.4667 8.57488 10 7.99988 10ZM17.1632 7.56667C17.1582 8.2075 17.0874 8.83167 16.9565 9.435C18.099 10.3525 18.8332 11.7575 18.8332 13.3333V17.5C18.8332 17.96 18.4599 18.3333 17.9999 18.3333H13.8332C12.2574 18.3333 10.8524 17.5992 9.93488 16.4567C9.33154 16.5867 8.70738 16.6583 8.06654 16.6633C9.22071 18.6542 11.3707 20 13.8332 20H17.9999C19.3807 20 20.4999 18.8808 20.4999 17.5V13.3333C20.4999 10.8708 19.154 8.72083 17.1632 7.56667ZM15.4807 8.0425C15.6349 5.865 14.8407 3.73417 13.3032 2.19583C11.7657 0.6575 9.63654 -0.139167 7.45738 0.0191666C3.68571 0.285833 0.499878 3.82417 0.499878 7.74667V11.945C0.499878 13.6292 1.86821 15 3.55071 15H7.28154C11.604 15 15.2057 11.9442 15.4807 8.0425ZM12.1249 3.375C13.3215 4.57083 13.9382 6.22917 13.819 7.925C13.6082 10.9067 10.6757 13.3325 7.28154 13.3325H3.55071C2.78738 13.3325 2.16654 12.71 2.16654 11.9442V7.74583C2.16654 4.66583 4.64321 1.88833 7.57488 1.68083C7.71404 1.67083 7.85238 1.66583 7.99071 1.66583C9.53904 1.66583 11.0274 2.27583 12.1249 3.375Z" fill="#6DCEFF"/>
</g>
<defs>
<clipPath id="clip0_1_242">
<rect width="20" height="20" fill="white" transform="translate(0.499878)"/>
</clipPath>
</defs>
</svg>
