<svg width="40" height="40" viewBox="0 0 40 40" fill="none" xmlns="http://www.w3.org/2000/svg">
<g clip-path="url(#clip0_1546_45)">
<circle cx="20" cy="22" r="20" fill="#F0F3F7" fill-opacity="0.7"/>
<path d="M23.8281 18C23.8281 20.1143 22.1143 21.8281 20 21.8281C17.8857 21.8281 16.1719 20.1143 16.1719 18C16.1719 15.8857 17.8857 14.1719 20 14.1719C22.1143 14.1719 23.8281 15.8857 23.8281 18Z" fill="#0A0C18"/>
<path d="M28.9526 11.2269C28.7686 10.7282 28.475 10.2769 28.0936 9.90637C27.7231 9.5249 27.272 9.23132 26.7731 9.0473C26.3684 8.89014 25.7605 8.70306 24.6408 8.6521C23.4296 8.59686 23.0664 8.58496 20 8.58496C16.9333 8.58496 16.5701 8.59656 15.3592 8.65179C14.2395 8.70306 13.6313 8.89014 13.2269 9.0473C12.728 9.23132 12.2766 9.5249 11.9064 9.90637C11.525 10.2769 11.2314 10.7279 11.0471 11.2269C10.8899 11.6315 10.7028 12.2397 10.6519 13.3594C10.5966 14.5704 10.5847 14.9335 10.5847 18.0002C10.5847 21.0667 10.5966 21.4298 10.6519 22.6411C10.7028 23.7607 10.8899 24.3687 11.0471 24.7733C11.2314 25.2723 11.5247 25.7233 11.9061 26.0938C12.2766 26.4753 12.7277 26.7689 13.2266 26.9529C13.6313 27.1104 14.2395 27.2974 15.3592 27.3484C16.5701 27.4036 16.933 27.4152 19.9997 27.4152C23.0667 27.4152 23.4299 27.4036 24.6405 27.3484C25.7602 27.2974 26.3684 27.1104 26.7731 26.9529C27.7747 26.5665 28.5663 25.7749 28.9526 24.7733C29.1098 24.3687 29.2969 23.7607 29.3481 22.6411C29.4034 21.4298 29.415 21.0667 29.415 18.0002C29.415 14.9335 29.4034 14.5704 29.3481 13.3594C29.2972 12.2397 29.1101 11.6315 28.9526 11.2269ZM20 23.8972C16.7429 23.8972 14.1025 21.2571 14.1025 17.9999C14.1025 14.7428 16.7429 12.1027 20 12.1027C23.2568 12.1027 25.8972 14.7428 25.8972 17.9999C25.8972 21.2571 23.2568 23.8972 20 23.8972ZM26.1304 13.2477C25.3693 13.2477 24.7522 12.6307 24.7522 11.8696C24.7522 11.1085 25.3693 10.4914 26.1304 10.4914C26.8915 10.4914 27.5085 11.1085 27.5085 11.8696C27.5082 12.6307 26.8915 13.2477 26.1304 13.2477Z" fill="#0A0C18"/>
<path d="M20 -2C8.95599 -2 0 6.95599 0 18C0 29.044 8.95599 38 20 38C31.044 38 40 29.044 40 18C40 6.95599 31.044 -2 20 -2ZM31.4151 22.7348C31.3596 23.9573 31.1652 24.792 30.8813 25.5226C30.2847 27.0652 29.0652 28.2847 27.5226 28.8813C26.7923 29.1652 25.9573 29.3593 24.7351 29.4151C23.5104 29.4709 23.1192 29.4844 20.0003 29.4844C16.8811 29.4844 16.4902 29.4709 15.2652 29.4151C14.043 29.3593 13.208 29.1652 12.4777 28.8813C11.7111 28.593 11.0172 28.141 10.4434 27.5566C9.85931 26.9832 9.40735 26.2889 9.11896 25.5226C8.83514 24.7923 8.64075 23.9573 8.58521 22.7351C8.52875 21.5101 8.51562 21.1189 8.51562 18C8.51562 14.8811 8.52875 14.4899 8.5849 13.2652C8.64044 12.0427 8.83453 11.208 9.11835 10.4774C9.40674 9.71112 9.85901 9.01685 10.4434 8.44342C11.0168 7.85901 11.7111 7.40704 12.4774 7.11865C13.208 6.83484 14.0427 6.64075 15.2652 6.5849C16.4899 6.52905 16.8811 6.51562 20 6.51562C23.1189 6.51562 23.5101 6.52905 24.7348 6.58521C25.9573 6.64075 26.792 6.83484 27.5226 7.11835C28.2889 7.40674 28.9832 7.85901 29.5569 8.44342C30.141 9.01715 30.5933 9.71112 30.8813 10.4774C31.1655 11.208 31.3596 12.0427 31.4154 13.2652C31.4713 14.4899 31.4844 14.8811 31.4844 18C31.4844 21.1189 31.4713 21.5101 31.4151 22.7348Z" fill="#0A0C18"/>
</g>
<defs>
<clipPath id="clip0_1546_45">
<rect width="40" height="40" rx="20" fill="white"/>
</clipPath>
</defs>
</svg>
