<svg width="20" height="20" viewBox="0 0 20 20" fill="none" xmlns="http://www.w3.org/2000/svg">
<g clip-path="url(#clip0_1_232)">
<path d="M18.7157 7.58167L17.4999 6.41667V3.33333C17.4999 1.495 16.0049 0 14.1665 0H5.83321C3.99488 0 2.49988 1.495 2.49988 3.33333V6.41667L1.28404 7.58083C0.468211 8.3625 -0.00012207 9.45917 -0.00012207 10.5892V15.8333C-0.00012207 18.1308 1.86904 20 4.16654 20H15.8332C18.1307 20 19.9999 18.1308 19.9999 15.8333V10.5892C19.9999 9.45917 19.5315 8.3625 18.7157 7.58167ZM5.83321 1.66667H14.1665C15.0857 1.66667 15.8332 2.41417 15.8332 3.33333V10.2017L11.7674 14.2675C10.8232 15.2117 9.17654 15.2117 8.23238 14.2675L4.16654 10.2017V3.33333C4.16654 2.41417 4.91404 1.66667 5.83321 1.66667ZM18.3332 15.8333C18.3332 17.2117 17.2115 18.3333 15.8332 18.3333H4.16654C2.78821 18.3333 1.66654 17.2117 1.66654 15.8333V10.5892C1.66654 10.4267 1.68488 10.2658 1.71571 10.1083L7.05404 15.4467C7.83988 16.2333 8.88654 16.6675 9.99988 16.6675C11.1132 16.6675 12.1599 16.2333 12.9457 15.4467L18.284 10.1083C18.3149 10.2658 18.3332 10.4275 18.3332 10.5892V15.8333ZM6.09904 7.94667C5.76238 7.63333 5.74238 7.10583 6.05571 6.76917C6.36988 6.43167 6.89821 6.41417 7.23321 6.72583L8.77571 8.16C8.99988 8.38333 9.33071 8.38417 9.53488 8.18L12.754 5.07667C13.0857 4.75667 13.6132 4.7675 13.9324 5.0975C14.2524 5.42833 14.2424 5.95667 13.9115 6.27583L10.7024 9.36917C10.2824 9.78917 9.72654 9.99917 9.16988 9.99917C8.60904 9.99917 8.04654 9.78583 7.61904 9.35917L6.09904 7.94583V7.94667Z" fill="#6DCEFF"/>
</g>
<defs>
<clipPath id="clip0_1_232">
<rect width="20" height="20" fill="white"/>
</clipPath>
</defs>
</svg>
