<svg width="43" height="45" viewBox="0 0 43 45" fill="none" xmlns="http://www.w3.org/2000/svg">
<g clip-path="url(#clip0_1_826)">
<circle cx="21.5" cy="23.5" r="21.5" fill="#F0F3F7"/>
<path d="M21.5 43C33.377 43 43 33.377 43 21.5C43 9.62304 33.377 0 21.5 0C9.62304 0 0 9.62304 0 21.5C0 33.377 9.62304 43 21.5 43ZM9.83804 21.0342L30.5676 13.0415C31.5298 12.694 32.37 13.2762 32.0583 14.7311L32.0601 14.7293L28.5305 31.3577C28.2689 32.5367 27.5684 32.8233 26.5883 32.2679L21.2133 28.3065L18.6208 30.8041C18.3341 31.0908 18.0922 31.3327 17.5368 31.3327L17.9185 25.8627L27.8801 16.8632C28.3137 16.4815 27.7834 16.2665 27.2118 16.6464L14.9013 24.3971L9.59437 22.7416C8.44233 22.3761 8.41725 21.5896 9.83804 21.0342Z" fill="#0A0C18"/>
</g>
<defs>
<clipPath id="clip0_1_826">
<rect width="43" height="45" fill="white"/>
</clipPath>
</defs>
</svg>
