<svg width="21" height="20" viewBox="0 0 21 20" fill="none" xmlns="http://www.w3.org/2000/svg">
<g clip-path="url(#clip0_1_237)">
<path d="M15.4824 10.8533C14.5499 9.92333 13.1382 9.755 12.0324 10.3475L8.00571 6.32083V3.74917C8.00571 2.905 7.55155 2.11917 6.82071 1.6975L4.33655 0.265001C3.56071 -0.183332 2.57655 -0.0524986 1.94155 0.580835L1.08738 1.43667C0.453214 2.06917 0.324047 3.05417 0.771547 3.83L2.20405 6.31417C2.62571 7.04584 3.41238 7.5 4.25571 7.5H6.82738L10.849 11.5217C10.6174 11.945 10.494 12.4208 10.494 12.9167C10.494 13.6967 10.7982 14.4283 11.3507 14.98L15.529 19.1467C16.0774 19.6933 16.824 20 17.5957 20C18.4165 20 19.3357 19.5658 19.8607 18.9258C20.799 17.7825 20.674 16.03 19.5765 14.9367L15.4824 10.8533ZM3.64738 5.4825L2.21488 2.9975C2.14321 2.87417 2.16405 2.71667 2.26571 2.615L3.11988 1.76C3.22155 1.65917 3.37905 1.6375 3.50321 1.70917L5.98655 3.1425C6.20321 3.2675 6.33821 3.50083 6.33821 3.75V5.83333H4.25488C4.00488 5.83333 3.77238 5.69917 3.64738 5.4825ZM18.5724 17.8683C18.3424 18.1492 18.0174 18.3133 17.6582 18.3317C17.3074 18.3483 16.9574 18.2158 16.7065 17.9667L12.5282 13.8C12.2915 13.5642 12.1615 13.2508 12.1615 12.9167C12.1615 12.5825 12.2924 12.27 12.5282 12.0333C12.7732 11.7892 13.0957 11.6667 13.4174 11.6667C13.739 11.6667 14.0607 11.7892 14.3057 12.0333L18.4007 16.1158C18.8974 16.6117 18.9724 17.3808 18.5724 17.8683ZM9.19738 14.2492C9.52238 14.5758 9.52155 15.1025 9.19571 15.4275L5.46488 19.1458C4.91655 19.6925 4.17071 19.9992 3.39821 19.9992C2.66405 19.9992 1.65821 19.565 1.13321 18.9242C0.195714 17.7817 0.31988 16.0292 1.41821 14.9358L6.14155 10.2233C6.46655 9.89833 6.99488 9.89833 7.31988 10.225C7.64488 10.5508 7.64405 11.0783 7.31821 11.4033L2.59405 16.1158C2.09738 16.6117 2.02071 17.3808 2.42071 17.8675C2.65155 18.1492 2.97655 18.3133 3.33571 18.3317C3.69071 18.3475 4.03655 18.2158 4.28738 17.9667L8.01905 14.2483C8.34488 13.9233 8.87155 13.9233 9.19821 14.25L9.19738 14.2492ZM8.74405 3.86167C9.51071 1.90917 11.264 0.466668 13.3199 0.0975014C14.039 -0.030832 14.7615 -0.033332 15.469 0.0925014C16.024 0.190835 16.4715 0.582501 16.6374 1.1125C16.8282 1.72 16.6374 2.38833 16.1274 2.9L14.1815 4.76833C13.7774 5.1725 13.7115 5.81917 14.044 6.22583C14.2357 6.46 14.5049 6.59667 14.8032 6.6125C15.094 6.62667 15.3815 6.51917 15.5924 6.30833L17.7707 4.2075C18.1757 3.8025 18.7815 3.65167 19.3482 3.8325C19.9015 4.00667 20.3074 4.4675 20.4082 5.03333C20.5332 5.74 20.5315 6.46417 20.4032 7.18417C20.169 8.49417 19.4865 9.71417 18.4815 10.62C18.3224 10.7633 18.1224 10.8342 17.924 10.8342C17.6965 10.8342 17.469 10.7417 17.3049 10.5592C16.9965 10.2175 17.024 9.69 17.3657 9.38167C18.0965 8.72333 18.5924 7.83833 18.7624 6.89167C18.844 6.435 18.8557 5.97917 18.7982 5.53167L16.7607 7.4975C16.2315 8.02833 15.4857 8.3175 14.7207 8.2775C13.9574 8.23917 13.2407 7.87667 12.754 7.28167C11.8857 6.22 12.0007 4.59333 13.0157 3.57917L14.9607 1.71083L14.9682 1.70333C14.5224 1.64667 14.0674 1.65833 13.614 1.74C12.124 2.00667 10.8532 3.05417 10.2957 4.4725C10.1282 4.90084 9.64405 5.11167 9.21571 4.94334C8.78738 4.775 8.57571 4.29167 8.74488 3.86333L8.74405 3.86167Z" fill="#6DCEFF"/>
</g>
<defs>
<clipPath id="clip0_1_237">
<rect width="20" height="20" fill="white" transform="translate(0.499878)"/>
</clipPath>
</defs>
</svg>
